<svg width="22" height="36" viewBox="0 0 22 36" fill="none" xmlns="http://www.w3.org/2000/svg">
<g clip-path="url(#clip0_1016_390)">
<path d="M11.0215 2.93302C14.1472 6.9011 15.8157 11.7944 15.7552 16.8155V18.0141L16.7864 18.6416C18.1189 19.4482 19.1126 20.6993 19.5866 22.1669C19.1705 21.8605 18.7351 21.5803 18.2832 21.3278L15.5332 19.7838L15.039 22.9001C14.9962 23.1755 14.9389 23.4485 14.8672 23.718H7.16145C7.04686 23.3655 6.95376 23.0129 6.86783 22.6463L6.24478 19.8261L3.70962 21.2362C3.28609 21.473 2.87717 21.7344 2.48501 22.0188C2.96818 20.5682 3.94117 19.3242 5.24218 18.4935L6.22329 17.866V16.7521C6.24099 11.7513 7.92961 6.89523 11.0286 2.93302H11.0215ZM11.0286 0C10.8679 0.000390307 10.7128 0.0579856 10.5918 0.162162L10.5273 0.218566C6.39772 4.76564 4.1046 10.6454 4.08202 16.745C2.32961 17.8643 1.03244 19.5543 0.417202 21.5197C-0.19804 23.485 -0.0922329 25.6007 0.716133 27.4971C1.5677 25.6455 2.99125 24.1058 4.78384 23.0975C4.96362 23.8642 5.20304 24.6161 5.49999 25.3467C5.53765 25.4871 5.62112 25.6114 5.73757 25.7006C5.85402 25.7898 5.997 25.8388 6.14452 25.8402H16.0846C16.2851 25.8402 16.4857 25.6498 16.5859 25.3537C16.8757 24.6592 17.0778 23.9322 17.1875 23.1892C18.9835 24.1932 20.4082 25.7342 21.2552 27.5887C22.1123 25.7017 22.245 23.5727 21.6287 21.5967C21.0123 19.6206 19.6888 17.9319 17.9036 16.8437C17.9745 10.7082 15.6935 4.77179 11.5156 0.218566C11.4534 0.150085 11.3773 0.0952397 11.2921 0.0575871C11.207 0.0199344 11.1148 0.000314749 11.0215 0L11.0286 0Z" fill="#4EA8DE"/>
<path d="M11.0214 16.1596C10.4714 16.1596 9.93363 15.9993 9.47599 15.6988C9.01834 15.3984 8.66128 14.9713 8.44981 14.4714C8.23834 13.9714 8.18194 13.4211 8.2877 12.8896C8.39346 12.3582 8.65666 11.8695 9.04411 11.4851C9.43157 11.1007 9.92594 10.8378 10.4649 10.7296C11.0039 10.6214 11.5633 10.6727 12.0727 10.8771C12.5821 11.0814 13.0187 11.4297 13.3273 11.8779C13.636 12.3261 13.803 12.8543 13.8073 13.3958C13.8158 13.7468 13.7541 14.0959 13.6255 14.4234C13.497 14.7508 13.3042 15.0501 13.0581 15.3041C12.812 15.5582 12.5175 15.762 12.1914 15.9039C11.8653 16.0459 11.514 16.1232 11.1575 16.1314C11.1124 16.1385 11.0665 16.1385 11.0214 16.1314V16.1596Z" fill="#4EA8DE"/>
<path d="M14.8958 27.5959C14.7166 27.5903 14.5381 27.6199 14.3707 27.6831C14.2033 27.7463 14.0504 27.8418 13.921 27.9639C13.7916 28.0861 13.6882 28.2324 13.6171 28.3944C13.5459 28.5564 13.5083 28.7308 13.5065 28.9073V33.0671C13.5065 33.4299 13.6528 33.7778 13.9134 34.0343C14.1739 34.2908 14.5273 34.4349 14.8958 34.4349C15.2643 34.4349 15.6176 34.2908 15.8782 34.0343C16.1387 33.7778 16.2851 33.4299 16.2851 33.0671V28.9637C16.2908 28.7879 16.261 28.6127 16.1972 28.4483C16.1335 28.284 16.0371 28.1338 15.9138 28.0065C15.7905 27.8792 15.6427 27.7773 15.479 27.7068C15.3152 27.6363 15.1389 27.5986 14.9602 27.5959H14.8958Z" fill="#5E60CE"/>
<path d="M7.16142 27.5956C6.97918 27.5861 6.79687 27.6128 6.62534 27.6741C6.4538 27.7354 6.29653 27.83 6.1629 27.9524C6.02927 28.0748 5.922 28.2223 5.84748 28.3863C5.77296 28.5503 5.73271 28.7274 5.72913 28.907V33.0668C5.72913 33.4296 5.8755 33.7775 6.13605 34.034C6.3966 34.2905 6.74998 34.4346 7.11845 34.4346C7.48692 34.4346 7.8403 34.2905 8.10085 34.034C8.3614 33.7775 8.50777 33.4296 8.50777 33.0668V28.9634C8.5135 28.7876 8.48361 28.6124 8.41986 28.4481C8.35611 28.2837 8.25977 28.1335 8.13646 28.0062C8.01314 27.8789 7.86532 27.777 7.70161 27.7065C7.53789 27.636 7.36157 27.5983 7.1829 27.5956H7.16142Z" fill="#5E60CE"/>
<path d="M10.9212 27.596C10.7425 27.5923 10.5648 27.6232 10.3982 27.6871C10.2317 27.751 10.0796 27.8466 9.95056 27.9683C9.82154 28.0901 9.71816 28.2357 9.64632 28.3969C9.57448 28.558 9.53558 28.7315 9.53186 28.9074V34.6395C9.53186 35.0022 9.67823 35.3502 9.93878 35.6067C10.1993 35.8632 10.5527 36.0073 10.9212 36.0073C11.2897 36.0073 11.643 35.8632 11.9036 35.6067C12.1641 35.3502 12.3105 35.0022 12.3105 34.6395V28.9991C12.3162 28.8232 12.2863 28.648 12.2226 28.4837C12.1588 28.3194 12.0625 28.1692 11.9392 28.0418C11.8159 27.9145 11.6681 27.8127 11.5043 27.7422C11.3406 27.6717 11.1643 27.634 10.9856 27.6313L10.9212 27.596Z" fill="#5E60CE"/>
</g>
<defs>
<clipPath id="clip0_1016_390">
<rect width="22" height="36" fill="white"/>
</clipPath>
</defs>
</svg>
